<svg width="24" height="25" viewBox="0 0 24 25" fill="none" xmlns="http://www.w3.org/2000/svg">
<path fill-rule="evenodd" clip-rule="evenodd" d="M12 12.5C14.4556 12.5 16.4444 10.6106 16.4444 8.27778C16.4444 5.945 14.4556 4.05556 12 4.05556C9.54444 4.05556 7.55556 5.945 7.55556 8.27778C7.55556 10.6106 9.54444 12.5 12 12.5ZM17.5556 8.27778C17.5556 11.1937 15.0694 13.5556 12 13.5556C8.93056 13.5556 6.44444 11.1937 6.44444 8.27778C6.44444 5.36181 8.93056 3 12 3C15.0694 3 17.5556 5.36181 17.5556 8.27778ZM3.79056 17.8897C3.23333 18.3172 3.11111 18.6375 3.11111 18.8333V20.9444H20.8889V18.8333C20.8889 18.6381 20.7667 18.3166 20.2089 17.8897C19.6644 17.4722 18.8522 17.0742 17.8678 16.7301C15.9 16.0424 13.5294 15.6667 12 15.6667C10.4706 15.6667 8.1 16.0424 6.13222 16.7301C5.14778 17.0742 4.33556 17.4722 3.79056 17.8897ZM12 14.6111C8.66278 14.6111 2 16.2129 2 18.8333V22H22V18.8333C22 16.2129 15.3378 14.6111 12 14.6111Z" fill="white"/>
</svg>
