<svg width="24" height="25" viewBox="0 0 24 25" fill="none" xmlns="http://www.w3.org/2000/svg">
<path d="M21.8868 8.13416C21.8292 8.05434 21.7527 7.98919 21.6639 7.94419C21.5751 7.8992 21.4765 7.87568 21.3764 7.87562H19.4185L15.3918 4.52788C14.9015 4.04963 14.1056 4.04902 13.6154 4.52788L9.65713 7.87562H8.04562L7.0365 4.48101C6.64077 3.1443 5.70041 3 5.31473 3H2.62375C2.2789 3 2 3.27237 2 3.60846C2 3.94455 2.27919 4.21689 2.62373 4.21689H5.31408C5.3992 4.21689 5.65893 4.21689 5.83609 4.81401L9.30754 17.2592C9.38292 17.5217 9.62821 17.7031 9.90805 17.7031H18.3874C18.6506 17.7031 18.8855 17.5423 18.9744 17.3005L21.9631 8.68992C22.0319 8.50334 22.0033 8.29562 21.8868 8.13416H21.8868ZM14.5037 5.39461L17.488 7.87592H11.5184L14.5037 5.39461ZM17.9484 16.4865H10.3815L8.39589 9.09282H20.4896L17.9484 16.4865ZM16.7113 18.9363C15.8438 18.9363 15.1409 19.6219 15.1409 20.4681C15.1409 21.3143 15.8438 22 16.7113 22C17.5788 22 18.2817 21.3143 18.2817 20.4681C18.2817 19.6219 17.5788 18.9363 16.7113 18.9363ZM11.058 18.9363C10.1905 18.9363 9.48761 19.6219 9.48761 20.4681C9.48761 21.3143 10.1905 22 11.058 22C11.9254 22 12.6283 21.3143 12.6283 20.4681C12.6283 19.6219 11.9254 18.9363 11.058 18.9363Z" fill="white"/>
</svg>
