<svg width="24" height="25" viewBox="0 0 24 25" fill="none" xmlns="http://www.w3.org/2000/svg">
<path d="M21.9609 13.0831L19.0518 4.99803C19.0038 4.86467 18.9148 4.75459 18.8005 4.68741C18.6863 4.62022 18.5544 4.60029 18.4282 4.63117L12.5455 6.08447V3.60638C12.5455 3.44556 12.488 3.29132 12.3857 3.17761C12.2834 3.06389 12.1447 3 12 3C11.8553 3 11.7166 3.06389 11.6143 3.17761C11.512 3.29132 11.4545 3.44556 11.4545 3.60638V6.35431L5.33636 7.87027C5.24969 7.89167 5.16902 7.93628 5.10137 8.00021C5.03373 8.06415 4.98114 8.14547 4.94818 8.23713L2.03909 16.3222C2.01404 16.3924 2.00079 16.4671 2 16.5426C2 18.7518 4.11909 19.5745 5.45455 19.5745C6.79 19.5745 8.90909 18.7518 8.90909 16.5426C8.90887 16.4654 8.89561 16.3889 8.87 16.3172L6.19909 8.89505L11.4545 7.59638V20.7872H9.81818C9.67352 20.7872 9.53478 20.8511 9.43249 20.9648C9.3302 21.0786 9.27273 21.2328 9.27273 21.3936C9.27273 21.5544 9.3302 21.7087 9.43249 21.8224C9.53478 21.9361 9.67352 22 9.81818 22H14.1818C14.3265 22 14.4652 21.9361 14.5675 21.8224C14.6698 21.7087 14.7273 21.5544 14.7273 21.3936C14.7273 21.2328 14.6698 21.0786 14.5675 20.9648C14.4652 20.8511 14.3265 20.7872 14.1818 20.7872H12.5455V7.32654L17.6555 6.06426L15.13 13.0831C15.1044 13.1549 15.0911 13.2313 15.0909 13.3085C15.0909 15.5178 17.21 16.3404 18.5455 16.3404C19.8809 16.3404 22 15.5178 22 13.3085C21.9998 13.2313 21.9865 13.1549 21.9609 13.0831ZM5.45455 18.3617C4.89868 18.3568 4.35262 18.1985 3.86545 17.9009C3.37727 17.5845 3.12455 17.1752 3.09364 16.6507L5.45727 10.0906L7.82091 16.6507C7.73273 18.0434 6.05273 18.3617 5.45455 18.3617ZM18.5455 15.1277C17.9896 15.1228 17.4435 14.9644 16.9564 14.6668C16.4682 14.3505 16.2155 13.9412 16.1845 13.4166L18.5482 6.8566L20.9118 13.4166C20.8236 14.8093 19.1436 15.1277 18.5455 15.1277Z" fill="white"/>
</svg>
