<svg width="24" height="25" viewBox="0 0 24 25" fill="none" xmlns="http://www.w3.org/2000/svg">
<path d="M16.4643 3C14.6205 3 13.0063 3.87896 12 5.36467C10.9937 3.87896 9.37946 3 7.53571 3C6.06806 3.00183 4.66099 3.64898 3.6232 4.79947C2.58541 5.94996 2.00165 7.50983 2 9.13686C2 16.0656 11.267 21.6739 11.6616 21.9055C11.7656 21.9675 11.8819 22 12 22C12.1181 22 12.2344 21.9675 12.3384 21.9055C12.733 21.6739 22 16.0656 22 9.13686C21.9983 7.50983 21.4146 5.94996 20.3768 4.79947C19.339 3.64898 17.9319 3.00183 16.4643 3ZM12 20.302C10.3696 19.2488 3.42857 14.4512 3.42857 9.13686C3.42999 7.92977 3.86316 6.77257 4.63309 5.91903C5.40302 5.06549 6.44687 4.58528 7.53571 4.58371C9.27232 4.58371 10.7304 5.60916 11.3393 7.25621C11.3931 7.40145 11.4846 7.52567 11.6023 7.61309C11.7199 7.70051 11.8584 7.74719 12 7.74719C12.1416 7.74719 12.2801 7.70051 12.3977 7.61309C12.5154 7.52567 12.6069 7.40145 12.6607 7.25621C13.2696 5.60619 14.7277 4.58371 16.4643 4.58371C17.5531 4.58528 18.597 5.06549 19.3669 5.91903C20.1368 6.77257 20.57 7.92977 20.5714 9.13686C20.5714 14.4433 13.6286 19.2478 12 20.302Z" fill="white"/>
</svg>
