<svg width="26" height="25" viewBox="0 0 26 25" fill="none" xmlns="http://www.w3.org/2000/svg">
<ellipse cx="13" cy="12.5" rx="13" ry="12.5" fill="#6CB67C"/>
<mask id="path-2-inside-1_64_1399" fill="white">
<path d="M21.9338 12.2856L19.4217 5.55687C19.3939 5.48309 19.3426 5.42225 19.2769 5.38514C19.2113 5.34803 19.1354 5.33705 19.0629 5.35417L13.7923 6.6074V4.33644C13.7923 4.24721 13.7592 4.16164 13.7003 4.09854C13.6414 4.03545 13.5615 4 13.4783 4C13.395 4 13.3151 4.03545 13.2562 4.09854C13.1973 4.16164 13.1643 4.24721 13.1643 4.33644V6.75796L7.75779 8.04568C7.70807 8.05756 7.66179 8.08222 7.62295 8.11753C7.58411 8.15284 7.55387 8.19775 7.53484 8.24838L5.02277 14.9772C5.00778 15.017 5.00005 15.0595 5 15.1025C5 16.8183 6.73333 17.4576 7.82609 17.4576C8.91884 17.4576 10.6522 16.8183 10.6522 15.1025C10.6521 15.0595 10.6444 15.017 10.6294 14.9772L8.25471 8.61594L13.1643 7.4485V18.8033H11.5942C11.5109 18.8033 11.4311 18.8388 11.3722 18.9019C11.3133 18.9649 11.2802 19.0505 11.2802 19.1398C11.2802 19.229 11.3133 19.3146 11.3722 19.3776C11.4311 19.4407 11.5109 19.4762 11.5942 19.4762H15.3623C15.4456 19.4762 15.5255 19.4407 15.5844 19.3776C15.6432 19.3146 15.6763 19.229 15.6763 19.1398C15.6763 19.0505 15.6432 18.9649 15.5844 18.9019C15.5255 18.8388 15.4456 18.8033 15.3623 18.8033H13.7923V7.29794L18.6178 6.149L16.3271 12.289C16.3125 12.3278 16.3048 12.3692 16.3043 12.411C16.3043 14.1268 18.0377 14.766 19.1304 14.766C20.2232 14.766 21.9565 14.1268 21.9565 12.411C21.9565 12.368 21.9487 12.3255 21.9338 12.2856ZM7.82609 16.7847C7.26479 16.7847 5.67748 16.4852 5.62802 15.1639L7.82609 9.2762L10.0242 15.1639C9.9747 16.4852 8.38738 16.7847 7.82609 16.7847ZM19.1304 14.0932C18.5691 14.0932 16.9818 13.7937 16.9324 12.4724L19.1304 6.58469L21.3285 12.4724C21.279 13.7937 19.6917 14.0932 19.1304 14.0932Z"/>
</mask>
<path d="M21.9338 12.2856L19.4217 5.55687C19.3939 5.48309 19.3426 5.42225 19.2769 5.38514C19.2113 5.34803 19.1354 5.33705 19.0629 5.35417L13.7923 6.6074V4.33644C13.7923 4.24721 13.7592 4.16164 13.7003 4.09854C13.6414 4.03545 13.5615 4 13.4783 4C13.395 4 13.3151 4.03545 13.2562 4.09854C13.1973 4.16164 13.1643 4.24721 13.1643 4.33644V6.75796L7.75779 8.04568C7.70807 8.05756 7.66179 8.08222 7.62295 8.11753C7.58411 8.15284 7.55387 8.19775 7.53484 8.24838L5.02277 14.9772C5.00778 15.017 5.00005 15.0595 5 15.1025C5 16.8183 6.73333 17.4576 7.82609 17.4576C8.91884 17.4576 10.6522 16.8183 10.6522 15.1025C10.6521 15.0595 10.6444 15.017 10.6294 14.9772L8.25471 8.61594L13.1643 7.4485V18.8033H11.5942C11.5109 18.8033 11.4311 18.8388 11.3722 18.9019C11.3133 18.9649 11.2802 19.0505 11.2802 19.1398C11.2802 19.229 11.3133 19.3146 11.3722 19.3776C11.4311 19.4407 11.5109 19.4762 11.5942 19.4762H15.3623C15.4456 19.4762 15.5255 19.4407 15.5844 19.3776C15.6432 19.3146 15.6763 19.229 15.6763 19.1398C15.6763 19.0505 15.6432 18.9649 15.5844 18.9019C15.5255 18.8388 15.4456 18.8033 15.3623 18.8033H13.7923V7.29794L18.6178 6.149L16.3271 12.289C16.3125 12.3278 16.3048 12.3692 16.3043 12.411C16.3043 14.1268 18.0377 14.766 19.1304 14.766C20.2232 14.766 21.9565 14.1268 21.9565 12.411C21.9565 12.368 21.9487 12.3255 21.9338 12.2856ZM7.82609 16.7847C7.26479 16.7847 5.67748 16.4852 5.62802 15.1639L7.82609 9.2762L10.0242 15.1639C9.9747 16.4852 8.38738 16.7847 7.82609 16.7847ZM19.1304 14.0932C18.5691 14.0932 16.9818 13.7937 16.9324 12.4724L19.1304 6.58469L21.3285 12.4724C21.279 13.7937 19.6917 14.0932 19.1304 14.0932Z" fill="black"/>
<path d="M21.9338 12.2856L20.9969 12.6354L20.9978 12.6377L21.9338 12.2856ZM19.4217 5.55687L20.3585 5.20712L20.3576 5.20453L19.4217 5.55687ZM19.0629 5.35417L18.8332 4.3809L18.8316 4.38129L19.0629 5.35417ZM13.7923 6.6074H12.7923V7.87306L14.0236 7.58028L13.7923 6.6074ZM13.1643 6.75796L13.396 7.73075L14.1643 7.54775V6.75796H13.1643ZM7.75779 8.04568L7.52609 7.07289L7.52544 7.07304L7.75779 8.04568ZM7.53484 8.24838L6.59877 7.89657L6.598 7.89863L7.53484 8.24838ZM5.02277 14.9772L5.95874 15.3293L5.95961 15.3269L5.02277 14.9772ZM5 15.1025L4 15.1012V15.1025H5ZM10.6522 15.1025L11.6522 15.1025L11.6522 15.1012L10.6522 15.1025ZM10.6294 14.9772L9.69256 15.3269L9.69344 15.3292L10.6294 14.9772ZM8.25471 8.61594L8.02337 7.64307L6.9219 7.90499L7.31786 8.96568L8.25471 8.61594ZM13.1643 7.4485H14.1643V6.18282L12.9329 6.47563L13.1643 7.4485ZM13.1643 18.8033V19.8033H14.1643V18.8033H13.1643ZM13.7923 18.8033H12.7923V19.8033H13.7923V18.8033ZM13.7923 7.29794L13.5607 6.32514L12.7923 6.50808V7.29794H13.7923ZM18.6178 6.149L19.5547 6.49855L20.2101 4.74194L18.3862 5.1762L18.6178 6.149ZM16.3271 12.289L17.263 12.6413L17.264 12.6386L16.3271 12.289ZM16.3043 12.411L15.3043 12.4003V12.411L16.3043 12.411ZM21.9565 12.411L22.9565 12.411L22.9565 12.4097L21.9565 12.411ZM5.62802 15.1639L4.69118 14.8141L4.62124 15.0015L4.62872 15.2013L5.62802 15.1639ZM7.82609 9.2762L8.76293 8.92645L7.82609 6.41705L6.88925 8.92645L7.82609 9.2762ZM10.0242 15.1639L11.0235 15.2013L11.0309 15.0015L10.961 14.8141L10.0242 15.1639ZM16.9324 12.4724L15.9955 12.1226L15.9256 12.31L15.9331 12.5098L16.9324 12.4724ZM19.1304 6.58469L20.0673 6.23494L19.1304 3.72554L18.1936 6.23494L19.1304 6.58469ZM21.3285 12.4724L22.3278 12.5098L22.3353 12.31L22.2653 12.1226L21.3285 12.4724ZM22.8706 11.9359L20.3585 5.20712L18.4848 5.90663L20.9969 12.6354L22.8706 11.9359ZM20.3576 5.20453C20.2512 4.922 20.0485 4.67249 19.7689 4.5145L18.785 6.25577C18.6368 6.172 18.5366 6.04418 18.4858 5.90921L20.3576 5.20453ZM19.7689 4.5145C19.4872 4.35533 19.154 4.3052 18.8332 4.3809L19.2926 6.32743C19.1169 6.36891 18.9354 6.34072 18.785 6.25577L19.7689 4.5145ZM18.8316 4.38129L13.5609 5.63453L14.0236 7.58028L19.2942 6.32704L18.8316 4.38129ZM14.7923 6.6074V4.33644H12.7923V6.6074H14.7923ZM14.7923 4.33644C14.7923 4.00341 14.6694 3.67131 14.4314 3.41622L12.9692 4.78086C12.8489 4.65196 12.7923 4.49101 12.7923 4.33644H14.7923ZM14.4314 3.41622C14.1911 3.15881 13.8499 3 13.4783 3V5C13.2732 5 13.0917 4.91209 12.9692 4.78086L14.4314 3.41622ZM13.4783 3C13.1066 3 12.7654 3.15881 12.5252 3.41622L13.9873 4.78086C13.8648 4.91209 13.6833 5 13.4783 5V3ZM12.5252 3.41622C12.2871 3.67131 12.1643 4.0034 12.1643 4.33644H14.1643C14.1643 4.49102 14.1076 4.65196 13.9873 4.78086L12.5252 3.41622ZM12.1643 4.33644V6.75796H14.1643V4.33644H12.1643ZM12.9326 5.78517L7.52609 7.07289L7.98949 9.01846L13.396 7.73075L12.9326 5.78517ZM7.52544 7.07304C7.30711 7.1252 7.11038 7.23202 6.95023 7.37763L8.29567 8.85743C8.2132 8.93241 8.10903 8.98991 7.99014 9.01831L7.52544 7.07304ZM6.95023 7.37763C6.79045 7.5229 6.67183 7.7022 6.59877 7.89657L8.47091 8.60019C8.43592 8.69331 8.37777 8.78278 8.29567 8.85743L6.95023 7.37763ZM6.598 7.89863L4.08592 14.6274L5.95961 15.3269L8.47168 8.59814L6.598 7.89863ZM4.0868 14.6251C4.02923 14.7781 4.0002 14.9396 4 15.1012L6 15.1037C5.99991 15.1795 5.98634 15.2559 5.95873 15.3292L4.0868 14.6251ZM4 15.1025C4 16.3594 4.65913 17.2371 5.45432 17.7593C6.2128 18.2574 7.11756 18.4576 7.82609 18.4576V16.4576C7.44186 16.4576 6.93357 16.3381 6.5522 16.0876C6.20754 15.8612 6 15.5614 6 15.1025H4ZM7.82609 18.4576C8.53461 18.4576 9.43937 18.2574 10.1978 17.7593C10.993 17.2371 11.6522 16.3594 11.6522 15.1025H9.65217C9.65217 15.5614 9.44463 15.8612 9.09998 16.0876C8.7186 16.3381 8.21032 16.4576 7.82609 16.4576V18.4576ZM11.6522 15.1012C11.652 14.9396 11.6229 14.7781 11.5654 14.6251L9.69344 15.3292C9.66584 15.2559 9.65227 15.1795 9.65217 15.1037L11.6522 15.1012ZM11.5663 14.6274L9.19156 8.26621L7.31786 8.96568L9.69256 15.3269L11.5663 14.6274ZM8.48605 9.58881L13.3956 8.42137L12.9329 6.47563L8.02337 7.64307L8.48605 9.58881ZM12.1643 7.4485V18.8033H14.1643V7.4485H12.1643ZM13.1643 17.8033H11.5942V19.8033H13.1643V17.8033ZM11.5942 17.8033C11.2226 17.8033 10.8814 17.9621 10.6411 18.2195L12.1032 19.5842C11.9807 19.7154 11.7993 19.8033 11.5942 19.8033V17.8033ZM10.6411 18.2195C10.403 18.4746 10.2802 18.8067 10.2802 19.1398H12.2802C12.2802 19.2943 12.2235 19.4553 12.1032 19.5842L10.6411 18.2195ZM10.2802 19.1398C10.2802 19.4728 10.403 19.8049 10.6411 20.06L12.1032 18.6953C12.2235 18.8242 12.2802 18.9852 12.2802 19.1398H10.2802ZM10.6411 20.06C10.8814 20.3174 11.2226 20.4762 11.5942 20.4762V18.4762C11.7993 18.4762 11.9807 18.5641 12.1032 18.6953L10.6411 20.06ZM11.5942 20.4762H15.3623V18.4762H11.5942V20.4762ZM15.3623 20.4762C15.734 20.4762 16.0752 20.3174 16.3154 20.06L14.8533 18.6953C14.9758 18.5641 15.1572 18.4762 15.3623 18.4762V20.4762ZM16.3154 20.06C16.5535 19.8049 16.6763 19.4728 16.6763 19.1398H14.6763C14.6763 18.9852 14.733 18.8242 14.8533 18.6953L16.3154 20.06ZM16.6763 19.1398C16.6763 18.8067 16.5535 18.4746 16.3154 18.2195L14.8533 19.5842C14.733 19.4553 14.6763 19.2943 14.6763 19.1398H16.6763ZM16.3154 18.2195C16.0752 17.9621 15.734 17.8033 15.3623 17.8033V19.8033C15.1572 19.8033 14.9758 19.7154 14.8533 19.5842L16.3154 18.2195ZM15.3623 17.8033H13.7923V19.8033H15.3623V17.8033ZM14.7923 18.8033V7.29794H12.7923V18.8033H14.7923ZM14.0239 8.27075L18.8494 7.12181L18.3862 5.1762L13.5607 6.32514L14.0239 8.27075ZM17.6809 5.79946L15.3902 11.9395L17.264 12.6386L19.5547 6.49855L17.6809 5.79946ZM15.3912 11.9368C15.3351 12.0858 15.3061 12.2428 15.3044 12.4003L17.3043 12.4217C17.3035 12.4955 17.2899 12.5698 17.263 12.6413L15.3912 11.9368ZM15.3043 12.411C15.3043 13.6679 15.9635 14.5456 16.7587 15.0678C17.5172 15.5659 18.4219 15.766 19.1304 15.766V13.766C18.7462 13.766 18.2379 13.6465 17.8565 13.3961C17.5119 13.1697 17.3043 12.8699 17.3043 12.411H15.3043ZM19.1304 15.766C19.839 15.766 20.7437 15.5659 21.5022 15.0678C22.2974 14.5456 22.9565 13.6679 22.9565 12.411H20.9565C20.9565 12.8699 20.749 13.1697 20.4043 13.3961C20.023 13.6465 19.5147 13.766 19.1304 13.766V15.766ZM22.9565 12.4097C22.9563 12.2481 22.9273 12.0866 22.8697 11.9336L20.9978 12.6377C20.9702 12.5644 20.9566 12.488 20.9565 12.4122L22.9565 12.4097ZM7.82609 15.7847C7.66707 15.7847 7.29187 15.7324 6.98751 15.578C6.71059 15.4375 6.63384 15.3006 6.62732 15.1265L4.62872 15.2013C4.67166 16.3485 5.4133 17.022 6.08272 17.3616C6.7247 17.6873 7.42381 17.7847 7.82609 17.7847V15.7847ZM6.56486 15.5136L8.76293 9.62596L6.88925 8.92645L4.69118 14.8141L6.56486 15.5136ZM6.88925 9.62596L9.08731 15.5136L10.961 14.8141L8.76293 8.92645L6.88925 9.62596ZM9.02485 15.1265C9.01834 15.3006 8.94159 15.4375 8.66466 15.578C8.3603 15.7324 7.9851 15.7847 7.82609 15.7847V17.7847C8.22837 17.7847 8.92747 17.6873 9.56945 17.3616C10.2389 17.022 10.9805 16.3485 11.0235 15.2013L9.02485 15.1265ZM19.1304 13.0932C18.9714 13.0932 18.5962 13.0409 18.2919 12.8865C18.0149 12.746 17.9382 12.6091 17.9317 12.435L15.9331 12.5098C15.976 13.657 16.7176 14.3305 17.3871 14.6701C18.029 14.9958 18.7282 15.0932 19.1304 15.0932V13.0932ZM17.8692 12.8221L20.0673 6.93445L18.1936 6.23494L15.9955 12.1226L17.8692 12.8221ZM18.1936 6.93445L20.3917 12.8221L22.2653 12.1226L20.0673 6.23494L18.1936 6.93445ZM20.3292 12.435C20.3227 12.6091 20.2459 12.746 19.969 12.8865C19.6646 13.0409 19.2894 13.0932 19.1304 13.0932V15.0932C19.5327 15.0932 20.2318 14.9958 20.8738 14.6701C21.5432 14.3305 22.2849 13.657 22.3278 12.5098L20.3292 12.435Z" fill="white" mask="url(#path-2-inside-1_64_1399)"/>
</svg>
