<svg width="25" height="25" viewBox="0 0 25 25" fill="none" xmlns="http://www.w3.org/2000/svg">
<mask id="path-1-inside-1_1_2289" fill="white">
<path fill-rule="evenodd" clip-rule="evenodd" d="M12.375 13.375C14.6771 13.375 16.5417 11.5104 16.5417 9.20833C16.5417 6.90625 14.6771 5.04167 12.375 5.04167C10.0729 5.04167 8.20833 6.90625 8.20833 9.20833C8.20833 11.5104 10.0729 13.375 12.375 13.375ZM17.5833 9.20833C17.5833 12.0859 15.2526 14.4167 12.375 14.4167C9.4974 14.4167 7.16667 12.0859 7.16667 9.20833C7.16667 6.33073 9.4974 4 12.375 4C15.2526 4 17.5833 6.33073 17.5833 9.20833ZM4.67865 18.6938C4.15625 19.1156 4.04167 19.4318 4.04167 19.625V21.7083H20.7083V19.625C20.7083 19.4323 20.5937 19.1151 20.0708 18.6938C19.5604 18.2818 18.799 17.8891 17.876 17.5495C16.0312 16.8708 13.8089 16.5 12.375 16.5C10.9411 16.5 8.71875 16.8708 6.87396 17.5495C5.95104 17.8891 5.18958 18.2818 4.67865 18.6938ZM12.375 15.4583C9.24635 15.4583 3 17.0391 3 19.625V22.75H21.75V19.625C21.75 17.0391 15.5042 15.4583 12.375 15.4583Z"/>
</mask>
<path fill-rule="evenodd" clip-rule="evenodd" d="M12.375 13.375C14.6771 13.375 16.5417 11.5104 16.5417 9.20833C16.5417 6.90625 14.6771 5.04167 12.375 5.04167C10.0729 5.04167 8.20833 6.90625 8.20833 9.20833C8.20833 11.5104 10.0729 13.375 12.375 13.375ZM17.5833 9.20833C17.5833 12.0859 15.2526 14.4167 12.375 14.4167C9.4974 14.4167 7.16667 12.0859 7.16667 9.20833C7.16667 6.33073 9.4974 4 12.375 4C15.2526 4 17.5833 6.33073 17.5833 9.20833ZM4.67865 18.6938C4.15625 19.1156 4.04167 19.4318 4.04167 19.625V21.7083H20.7083V19.625C20.7083 19.4323 20.5937 19.1151 20.0708 18.6938C19.5604 18.2818 18.799 17.8891 17.876 17.5495C16.0312 16.8708 13.8089 16.5 12.375 16.5C10.9411 16.5 8.71875 16.8708 6.87396 17.5495C5.95104 17.8891 5.18958 18.2818 4.67865 18.6938ZM12.375 15.4583C9.24635 15.4583 3 17.0391 3 19.625V22.75H21.75V19.625C21.75 17.0391 15.5042 15.4583 12.375 15.4583Z" fill="#333333"/>
<path d="M4.67865 18.6938L0.912502 14.023L0.908948 14.0258L4.67865 18.6938ZM4.04167 21.7083H-1.95833V27.7083H4.04167V21.7083ZM20.7083 21.7083V27.7083H26.7083V21.7083H20.7083ZM20.0708 18.6938L16.3024 23.3627L16.3062 23.3658L20.0708 18.6938ZM17.876 17.5495L19.9479 11.9186L19.9475 11.9184L17.876 17.5495ZM6.87396 17.5495L4.80245 11.9184L4.80208 11.9186L6.87396 17.5495ZM3 22.75H-3V28.75H3V22.75ZM21.75 22.75V28.75H27.75V22.75H21.75ZM12.375 19.375C17.9908 19.375 22.5417 14.8241 22.5417 9.20833H10.5417C10.5417 8.19671 11.3634 7.375 12.375 7.375V19.375ZM22.5417 9.20833C22.5417 3.59254 17.9908 -0.958333 12.375 -0.958333V11.0417C11.3634 11.0417 10.5417 10.22 10.5417 9.20833H22.5417ZM12.375 -0.958333C6.75921 -0.958333 2.20833 3.59254 2.20833 9.20833H14.2083C14.2083 10.22 13.3866 11.0417 12.375 11.0417V-0.958333ZM2.20833 9.20833C2.20833 14.8241 6.75921 19.375 12.375 19.375V7.375C13.3866 7.375 14.2083 8.19671 14.2083 9.20833H2.20833ZM11.5833 9.20833C11.5833 8.77223 11.9389 8.41667 12.375 8.41667V20.4167C18.5663 20.4167 23.5833 15.3996 23.5833 9.20833H11.5833ZM12.375 8.41667C12.8111 8.41667 13.1667 8.77223 13.1667 9.20833H1.16667C1.16667 15.3996 6.18369 20.4167 12.375 20.4167V8.41667ZM13.1667 9.20833C13.1667 9.64444 12.8111 10 12.375 10V-2C6.18369 -2 1.16667 3.01702 1.16667 9.20833H13.1667ZM12.375 10C11.9389 10 11.5833 9.64444 11.5833 9.20833H23.5833C23.5833 3.01702 18.5663 -2 12.375 -2V10ZM0.908948 14.0258C-0.291898 14.9956 -1.95833 16.8506 -1.95833 19.625H10.0417C10.0417 22.013 8.6044 23.2356 8.44834 23.3617L0.908948 14.0258ZM-1.95833 19.625V21.7083H10.0417V19.625H-1.95833ZM4.04167 27.7083H20.7083V15.7083H4.04167V27.7083ZM26.7083 21.7083V19.625H14.7083V21.7083H26.7083ZM26.7083 19.625C26.7083 16.8528 25.0441 14.9957 23.8354 14.0217L16.3062 23.3658C16.1434 23.2346 14.7083 22.0118 14.7083 19.625H26.7083ZM23.8393 14.0248C22.6155 13.0371 21.1777 12.3711 19.9479 11.9186L15.8042 23.1804C16.0713 23.2787 16.254 23.3627 16.3604 23.418C16.4115 23.4445 16.4317 23.4576 16.4262 23.4541C16.4219 23.4514 16.3765 23.4225 16.3024 23.3627L23.8393 14.0248ZM19.9475 11.9184C17.4828 11.0117 14.5606 10.5 12.375 10.5V22.5C12.6372 22.5 13.1769 22.5409 13.8862 22.6713C14.5782 22.7985 15.2571 22.9792 15.8045 23.1805L19.9475 11.9184ZM12.375 10.5C10.1894 10.5 7.26716 11.0117 4.80245 11.9184L8.94546 23.1805C9.4929 22.9792 10.1718 22.7985 10.8638 22.6713C11.5731 22.5409 12.1128 22.5 12.375 22.5V10.5ZM4.80208 11.9186C3.57159 12.3713 2.13543 13.0369 0.912503 14.023L8.44479 23.3645C8.37127 23.4238 8.32644 23.4523 8.32249 23.4548C8.31735 23.4581 8.33787 23.4448 8.38916 23.4182C8.49583 23.3627 8.67878 23.2787 8.94583 23.1804L4.80208 11.9186ZM12.375 9.45833C10.059 9.45833 7.01532 9.99438 4.44251 10.941C3.15825 11.4135 1.60448 12.1266 0.257637 13.2131C-1.0219 14.2453 -3 16.3669 -3 19.625H9C9 21.5901 7.8027 22.5444 7.79212 22.5529C7.71423 22.6157 7.91759 22.4488 8.586 22.2029C9.19068 21.9804 9.92766 21.7843 10.6754 21.6468C11.4385 21.5065 12.0425 21.4583 12.375 21.4583V9.45833ZM-3 19.625V22.75H9V19.625H-3ZM3 28.75H21.75V16.75H3V28.75ZM27.75 22.75V19.625H15.75V22.75H27.75ZM27.75 19.625C27.75 16.3671 25.7722 14.2456 24.4926 13.2132C23.1458 12.1267 21.592 11.4135 20.3077 10.941C17.7349 9.99436 14.6912 9.45833 12.375 9.45833V21.4583C12.7077 21.4583 13.3118 21.5065 14.0748 21.6468C14.8226 21.7843 15.5595 21.9804 16.1641 22.2029C16.8325 22.4488 17.0358 22.6157 16.9578 22.5528C16.9471 22.5442 15.75 21.5899 15.75 19.625H27.75Z" fill="white" mask="url(#path-1-inside-1_1_2289)"/>
</svg>
