<svg width="21" height="22" viewBox="0 0 21 22" fill="none" xmlns="http://www.w3.org/2000/svg">
<mask id="path-1-inside-1_1_23" fill="white">
<path fill-rule="evenodd" clip-rule="evenodd" d="M10.395 11.77C12.3288 11.77 13.895 10.1292 13.895 8.10335C13.895 6.07752 12.3288 4.43669 10.395 4.43669C8.46127 4.43669 6.89502 6.07752 6.89502 8.10335C6.89502 10.1292 8.46127 11.77 10.395 11.77ZM14.77 8.10335C14.77 10.6356 12.8122 12.6867 10.395 12.6867C7.97783 12.6867 6.02002 10.6356 6.02002 8.10335C6.02002 5.57106 7.97783 3.52002 10.395 3.52002C12.8122 3.52002 14.77 5.57106 14.77 8.10335ZM3.93008 16.4505C3.49127 16.8218 3.39502 17.1 3.39502 17.27V19.1034H17.395V17.27C17.395 17.1004 17.2988 16.8213 16.8595 16.4505C16.4308 16.088 15.7911 15.7424 15.0159 15.4436C13.4663 14.8464 11.5995 14.52 10.395 14.52C9.19058 14.52 7.32377 14.8464 5.77414 15.4436C4.99889 15.7424 4.35927 16.088 3.93008 16.4505ZM10.395 13.6034C7.76696 13.6034 2.52002 14.9944 2.52002 17.27V20.02H18.27V17.27C18.27 14.9944 13.0235 13.6034 10.395 13.6034Z"/>
</mask>
<path fill-rule="evenodd" clip-rule="evenodd" d="M10.395 11.77C12.3288 11.77 13.895 10.1292 13.895 8.10335C13.895 6.07752 12.3288 4.43669 10.395 4.43669C8.46127 4.43669 6.89502 6.07752 6.89502 8.10335C6.89502 10.1292 8.46127 11.77 10.395 11.77ZM14.77 8.10335C14.77 10.6356 12.8122 12.6867 10.395 12.6867C7.97783 12.6867 6.02002 10.6356 6.02002 8.10335C6.02002 5.57106 7.97783 3.52002 10.395 3.52002C12.8122 3.52002 14.77 5.57106 14.77 8.10335ZM3.93008 16.4505C3.49127 16.8218 3.39502 17.1 3.39502 17.27V19.1034H17.395V17.27C17.395 17.1004 17.2988 16.8213 16.8595 16.4505C16.4308 16.088 15.7911 15.7424 15.0159 15.4436C13.4663 14.8464 11.5995 14.52 10.395 14.52C9.19058 14.52 7.32377 14.8464 5.77414 15.4436C4.99889 15.7424 4.35927 16.088 3.93008 16.4505ZM10.395 13.6034C7.76696 13.6034 2.52002 14.9944 2.52002 17.27V20.02H18.27V17.27C18.27 14.9944 13.0235 13.6034 10.395 13.6034Z" fill="#333333"/>
<path d="M3.93008 16.4505L0.0582685 11.867L0.0547502 11.8699L3.93008 16.4505ZM3.39502 19.1034H-2.60498V25.1034H3.39502V19.1034ZM17.395 19.1034V25.1034H23.395V19.1034H17.395ZM16.8595 16.4505L12.9854 21.0321L12.9892 21.0354L16.8595 16.4505ZM15.0159 15.4436L17.1739 9.84509L17.1735 9.84494L15.0159 15.4436ZM5.77414 15.4436L3.6165 9.84494L3.61612 9.84509L5.77414 15.4436ZM2.52002 20.02H-3.47998V26.02H2.52002V20.02ZM18.27 20.02V26.02H24.27V20.02H18.27ZM10.395 17.77C15.9025 17.77 19.895 13.1768 19.895 8.10335H7.89502C7.89502 7.08157 8.75508 5.77002 10.395 5.77002V17.77ZM19.895 8.10335C19.895 3.02991 15.9025 -1.56331 10.395 -1.56331V10.4367C8.75508 10.4367 7.89502 9.12513 7.89502 8.10335H19.895ZM10.395 -1.56331C4.88758 -1.56331 0.89502 3.02991 0.89502 8.10335H12.895C12.895 9.12513 12.035 10.4367 10.395 10.4367V-1.56331ZM0.89502 8.10335C0.89502 13.1768 4.88758 17.77 10.395 17.77V5.77002C12.035 5.77002 12.895 7.08157 12.895 8.10335H0.89502ZM8.77002 8.10335C8.77002 7.58803 9.23852 6.68669 10.395 6.68669V18.6867C16.3859 18.6867 20.77 13.6833 20.77 8.10335H8.77002ZM10.395 6.68669C11.5515 6.68669 12.02 7.58803 12.02 8.10335H0.0200195C0.0200195 13.6833 4.40414 18.6867 10.395 18.6867V6.68669ZM12.02 8.10335C12.02 8.61867 11.5515 9.52002 10.395 9.52002V-2.47998C4.40414 -2.47998 0.0200195 2.52345 0.0200195 8.10335H12.02ZM10.395 9.52002C9.23852 9.52002 8.77002 8.61867 8.77002 8.10335H20.77C20.77 2.52345 16.3859 -2.47998 10.395 -2.47998V9.52002ZM0.0547502 11.8699C-1.08674 12.8357 -2.60498 14.6362 -2.60498 17.27H9.39502C9.39502 19.5638 8.06928 20.8079 7.80541 21.0311L0.0547502 11.8699ZM-2.60498 17.27V19.1034H9.39502V17.27H-2.60498ZM3.39502 25.1034H17.395V13.1034H3.39502V25.1034ZM23.395 19.1034V17.27H11.395V19.1034H23.395ZM23.395 17.27C23.395 14.6384 21.879 12.8357 20.7298 11.8657L12.9892 21.0354C12.7186 20.8069 11.395 19.5625 11.395 17.27H23.395ZM20.7336 11.8689C19.5936 10.9049 18.2707 10.2679 17.1739 9.84509L12.8579 21.042C12.9486 21.077 13.0231 21.1087 13.082 21.1355C13.1412 21.1625 13.1791 21.1821 13.1977 21.1923C13.2171 21.2028 13.2082 21.1991 13.1765 21.178C13.146 21.1577 13.0782 21.1106 12.9854 21.0321L20.7336 11.8689ZM17.1735 9.84494C14.9849 9.00146 12.3884 8.52002 10.395 8.52002V20.52C10.5208 20.52 10.8969 20.5447 11.441 20.6495C11.9663 20.7507 12.4701 20.8926 12.8582 21.0422L17.1735 9.84494ZM10.395 8.52002C8.40164 8.52002 5.80513 9.00146 3.6165 9.84494L7.93179 21.0422C8.31999 20.8926 8.82377 20.7507 9.34908 20.6495C9.89317 20.5447 10.2692 20.52 10.395 20.52V8.52002ZM3.61612 9.84509C2.51865 10.2681 1.19739 10.9047 0.0582695 11.867L7.80189 21.0341C7.70974 21.1119 7.64247 21.1586 7.61224 21.1787C7.58094 21.1995 7.57236 21.2031 7.59186 21.1925C7.61072 21.1822 7.64871 21.1625 7.70798 21.1355C7.76686 21.1087 7.84142 21.077 7.93217 21.042L3.61612 9.84509ZM10.395 7.60335C8.29212 7.60335 5.59359 8.1062 3.3141 8.9848C2.1714 9.42524 0.751274 10.1037 -0.491982 11.1544C-1.69623 12.1722 -3.47998 14.2073 -3.47998 17.27H8.52002C8.52002 19.1949 7.39213 20.2028 7.25382 20.3197C7.07649 20.4696 7.13235 20.3736 7.62989 20.1819C8.06682 20.0134 8.61951 19.858 9.19089 19.7479C9.77875 19.6347 10.2091 19.6034 10.395 19.6034V7.60335ZM-3.47998 17.27V20.02H8.52002V17.27H-3.47998ZM2.52002 26.02H18.27V14.02H2.52002V26.02ZM24.27 20.02V17.27H12.27V20.02H24.27ZM24.27 17.27C24.27 14.2075 22.4865 12.1724 21.2822 11.1545C20.039 10.1038 18.6189 9.42529 17.4762 8.98482C15.1966 8.10618 12.4981 7.60335 10.395 7.60335V19.6034C10.581 19.6034 11.0115 19.6347 11.5994 19.7479C12.1707 19.858 12.7234 20.0134 13.1603 20.1818C13.6577 20.3736 13.7135 20.4695 13.5361 20.3196C13.3977 20.2026 12.27 19.1947 12.27 17.27H24.27Z" fill="#1FAF38" mask="url(#path-1-inside-1_1_23)"/>
</svg>
