<svg width="26" height="25" viewBox="0 0 26 25" fill="none" xmlns="http://www.w3.org/2000/svg">
<ellipse cx="13" cy="12.5" rx="13" ry="12.5" fill="#6CB67C"/>
<g clip-path="url(#clip0_1_492)">
<path d="M16.7849 4.76172C15.2217 4.76172 13.8531 5.47766 13 6.68783C12.1469 5.47766 10.7782 4.76172 9.21505 4.76172C7.97074 4.76321 6.77779 5.29034 5.89792 6.22745C5.01806 7.16457 4.52313 8.43514 4.52173 9.76042C4.52173 15.4041 12.3785 19.9723 12.7131 20.1609C12.8013 20.2115 12.8999 20.2379 13 20.2379C13.1001 20.2379 13.1987 20.2115 13.2869 20.1609C13.6215 19.9723 21.4783 15.4041 21.4783 9.76042C21.4768 8.43514 20.9819 7.16457 20.1021 6.22745C19.2222 5.29034 18.0292 4.76321 16.7849 4.76172ZM13 18.8548C11.6177 17.997 5.73291 14.0891 5.73291 9.76042C5.73411 8.7772 6.10136 7.83462 6.75413 7.13938C7.4069 6.44413 8.2919 6.05299 9.21505 6.05171C10.6874 6.05171 11.9236 6.88697 12.4398 8.22856C12.4854 8.34686 12.5631 8.44804 12.6628 8.51925C12.7625 8.59046 12.8799 8.62848 13 8.62848C13.1201 8.62848 13.2374 8.59046 13.3372 8.51925C13.4369 8.44804 13.5145 8.34686 13.5602 8.22856C14.0764 6.88455 15.3126 6.05171 16.7849 6.05171C17.7081 6.05299 18.5931 6.44413 19.2458 7.13938C19.8986 7.83462 20.2659 8.7772 20.2671 9.76042C20.2671 14.0827 14.3807 17.9962 13 18.8548Z" fill="white"/>
</g>
<defs>
<clipPath id="clip0_1_492">
<rect width="16.9565" height="15.4762" fill="white" transform="translate(4.52173 4.76172)"/>
</clipPath>
</defs>
</svg>
