<svg width="23" height="21" viewBox="0 0 23 21" fill="none" xmlns="http://www.w3.org/2000/svg">
<ellipse cx="11.5" cy="10.5" rx="11.5" ry="10.5" fill="#6CB67C"/>
<g clip-path="url(#clip0_2917_2586)">
<path d="M14.8482 4C13.4654 4 12.2547 4.60139 11.5 5.61793C10.7453 4.60139 9.5346 4 8.15179 4C7.05104 4.00125 5.99574 4.44404 5.2174 5.23122C4.43906 6.01839 4.00124 7.08567 4 8.19891C4 12.9396 10.9502 16.7769 11.2462 16.9353C11.3242 16.9778 11.4114 17 11.5 17C11.5886 17 11.6758 16.9778 11.7538 16.9353C12.0498 16.7769 19 12.9396 19 8.19891C18.9988 7.08567 18.5609 6.01839 17.7826 5.23122C17.0043 4.44404 15.949 4.00125 14.8482 4ZM11.5 15.8382C10.2772 15.1176 5.07143 11.835 5.07143 8.19891C5.07249 7.373 5.39737 6.58123 5.97482 5.99723C6.55227 5.41323 7.33515 5.08466 8.15179 5.08359C9.45424 5.08359 10.5478 5.78521 11.0045 6.91214C11.0448 7.01152 11.1135 7.09651 11.2017 7.15632C11.29 7.21614 11.3938 7.24808 11.5 7.24808C11.6062 7.24808 11.71 7.21614 11.7983 7.15632C11.8865 7.09651 11.9552 7.01152 11.9955 6.91214C12.4522 5.78318 13.5458 5.08359 14.8482 5.08359C15.6648 5.08466 16.4477 5.41323 17.0252 5.99723C17.6026 6.58123 17.9275 7.373 17.9286 8.19891C17.9286 11.8296 12.7214 15.1169 11.5 15.8382Z" fill="white"/>
</g>
<defs>
<clipPath id="clip0_2917_2586">
<rect width="15" height="13" fill="white" transform="translate(4 4)"/>
</clipPath>
</defs>
</svg>
