<svg width="21" height="22" viewBox="0 0 21 22" fill="none" xmlns="http://www.w3.org/2000/svg">
<path d="M14.969 3.52002C13.275 3.52002 11.7919 4.28314 10.8674 5.57307C9.94294 4.28314 8.45981 3.52002 6.76587 3.52002C5.41746 3.52161 4.12472 4.08348 3.17125 5.08235C2.21778 6.08122 1.68145 7.43553 1.67993 8.84814C1.67993 14.8638 10.194 19.733 10.5565 19.9341C10.6521 19.9879 10.7589 20.0161 10.8674 20.0161C10.9759 20.0161 11.0828 19.9879 11.1783 19.9341C11.5409 19.733 20.0549 14.8638 20.0549 8.84814C20.0534 7.43553 19.5171 6.08122 18.5636 5.08235C17.6101 4.08348 16.3174 3.52161 14.969 3.52002ZM10.8674 18.5419C9.36954 17.6275 2.99243 13.4621 2.99243 8.84814C2.99373 7.80013 3.39171 6.79543 4.09908 6.05437C4.80646 5.31331 5.76549 4.89638 6.76587 4.89502C8.36138 4.89502 9.70095 5.78533 10.2604 7.21533C10.3098 7.34143 10.394 7.44928 10.502 7.52518C10.6101 7.60108 10.7373 7.6416 10.8674 7.6416C10.9976 7.6416 11.1247 7.60108 11.2328 7.52518C11.3409 7.44928 11.425 7.34143 11.4745 7.21533C12.0339 5.78275 13.3735 4.89502 14.969 4.89502C15.9694 4.89638 16.9284 5.31331 17.6358 6.05437C18.3432 6.79543 18.7411 7.80013 18.7424 8.84814C18.7424 13.4553 12.3637 17.6267 10.8674 18.5419Z" fill="#1FAF38"/>
</svg>
