<svg width="15" height="16" viewBox="0 0 15 16" fill="none" xmlns="http://www.w3.org/2000/svg">
<path d="M14.8896 13.308L11.3661 9.78454C12.3709 8.62905 12.8877 7.12857 12.8078 5.5994C12.7278 4.07024 12.0572 2.63185 10.9374 1.58745C9.81763 0.543051 8.33606 -0.0257682 6.80504 0.000896871C5.27401 0.0275619 3.81315 0.647628 2.73039 1.73039C1.64763 2.81315 1.02756 4.27401 1.0009 5.80504C0.974232 7.33606 1.54305 8.81763 2.58745 9.93744C3.63185 11.0572 5.07024 11.7278 6.5994 11.8078C8.12857 11.8877 9.62905 11.3709 10.7845 10.3661L14.308 13.8896C14.386 13.9622 14.4892 14.0018 14.5958 13.9999C14.7024 13.9981 14.8041 13.9549 14.8795 13.8795C14.9549 13.8041 14.9981 13.7024 14.9999 13.5958C15.0018 13.4892 14.9622 13.386 14.8896 13.308ZM1.84347 5.91817C1.84347 4.91449 2.14109 3.93335 2.69871 3.09881C3.25632 2.26428 4.04888 1.61385 4.97616 1.22975C5.90344 0.845662 6.9238 0.745166 7.90819 0.940975C8.89259 1.13678 9.79682 1.6201 10.5065 2.32981C11.2162 3.03952 11.6996 3.94375 11.8954 4.92814C12.0912 5.91254 11.9907 6.93289 11.6066 7.86017C11.2225 8.78745 10.5721 9.58002 9.73752 10.1376C8.90299 10.6952 7.92185 10.9929 6.91817 10.9929C5.57278 10.9912 4.28295 10.4561 3.33162 9.50472C2.38028 8.55338 1.8451 7.26356 1.84347 5.91817Z" fill="#1FAF38"/>
</svg>
